<?xml version="1.0" encoding="UTF-8" standalone="no"?>
<!-- Created with Inkscape (http://www.inkscape.org/) -->

<svg
   width="48"
   height="48"
   viewBox="0 0 12.7 12.7"
   version="1.1"
   id="svg5"
   xmlns="http://www.w3.org/2000/svg"
   xmlns:svg="http://www.w3.org/2000/svg">
  <defs
     id="defs2" />
  <g
     id="layer1"
     style="display:inline">
    <path
       style="fill:none;stroke:#000000;stroke-width:0.264583px;stroke-linecap:butt;stroke-linejoin:miter;stroke-opacity:1"
       d="M 6.6145833,10.847917 C 6.6145833,10.847917 3.593656,10.847917 2.8230505,10.4965 C 2.6969227,10.438983 2.6461593,10.200284 2.6441764,10.054173 C 2.6383708,9.6263882 2.6122239,8.8502331 2.494464,8.4384248 C 2.454672,8.2992715 2.28824,8.1228834 2.1510984,8.0760149 C 1.74579,7.9375 1.0583333,7.9374999 1.0583333,7.9374999 M 6.6145831,10.847917 C 6.6145831,10.847917 9.6355104,10.847917 10.406116,10.4965 C 10.532244,10.438983 10.583007,10.200284 10.58499,10.054173 C 10.590796,9.6263882 10.616943,8.8502331 10.734702,8.4384248 C 10.774494,8.2992715 10.940926,8.1228834 11.078068,8.0760149 C 11.483376,7.9375 12.170833,7.9374999 12.170833,7.9374999"
       id="path182"
       class="UnoptimicedTransforms" />
  </g>
</svg>
