<?xml version="1.0" encoding="UTF-8" standalone="no"?>
<!-- Created with Inkscape (http://www.inkscape.org/) -->

<svg
   width="48"
   height="48"
   viewBox="0 0 12.7 12.7"
   version="1.1"
   id="svg5"
   xmlns="http://www.w3.org/2000/svg"
   xmlns:svg="http://www.w3.org/2000/svg">
  <defs
     id="defs2" />
  <g
     id="layer1"
     style="display:inline">
    <path
       style="fill:none;stroke:#000000;stroke-width:0.264583px;stroke-linecap:butt;stroke-linejoin:miter;stroke-opacity:1"
       d="M 6.6145833,10.847917 C 6.6145833,10.847917 3.593656,10.847917 2.8230505,10.4965 C 2.6969227,10.438983 2.6461593,10.200284 2.6441764,10.054173 C 2.64061,9.7913814 2.6293673,9.3971238 2.5939258,9.0366251 C 2.5473892,8.5632713 2.2880474,7.8234172 2.2551817,7.3474322 C 2.1166667,5.341363 2.1166667,0.52916667 2.1166667,0.52916667 M 6.6145831,10.847917 C 6.6145831,10.847917 9.6355104,10.847917 10.406116,10.4965 C 10.532244,10.438983 10.583007,10.200284 10.58499,10.054173 C 10.588556,9.7913814 10.599799,9.3971238 10.635241,9.0366251 C 10.681777,8.5632713 10.941119,7.8234172 10.973985,7.3474322 C 11.1125,5.341363 11.1125,0.52916667 11.1125,0.52916667"
       id="path182"
       class="UnoptimicedTransforms" />
  </g>
</svg>
