<?xml version="1.0" encoding="UTF-8" standalone="no"?>
<!-- Created with Inkscape (http://www.inkscape.org/) -->

<svg
   width="48"
   height="48"
   viewBox="0 0 12.7 12.7"
   version="1.1"
   id="svg5"
   xmlns="http://www.w3.org/2000/svg"
   xmlns:svg="http://www.w3.org/2000/svg">
  <defs
     id="defs2" />
  <g
     id="layer2">
    <path
       style="color:#000000;display:inline;fill:#000000;stroke-width:0.928084;-inkscape-stroke:none"
       d="M 2.38125,7.9375 C 2.38125,7.9375 2.6458333,7.9375 2.7955376,8.503917 L 2.8660662,9.0611028 L 2.897804,9.752461 L 2.9313051,9.9835354 C 2.9542819,10.065601 2.9881463,10.157087 3.0811784,10.210882 C 3.2696305,10.319851 3.5649016,10.379744 3.9239953,10.430775 C 4.2830889,10.481806 4.7001146,10.5164 5.0965334,10.538858 C 5.581216,10.574112 6.1708638,10.571968 6.6023191,10.587309 C 7.0979249,10.584608 7.7007222,10.561389 8.1098681,10.538858 C 8.5062869,10.5164 8.9233126,10.481806 9.2824063,10.430775 C 9.6414999,10.379744 9.9367707,10.319851 10.125223,10.210882 C 10.218255,10.157087 10.25212,10.065601 10.275097,9.9835354 C 10.298073,9.9014684 10.30701,9.8183052 10.308597,9.752461 C 10.313118,9.564943 10.323284,9.3029239 10.340335,9.0611028 C 10.357387,8.8192818 10.384787,8.5895571 10.410864,8.503917 C 10.583333,7.9375 10.847917,7.9375 10.847917,7.9375 Z"
       id="path168" />
  </g>
</svg>
