<?xml version="1.0" encoding="UTF-8" standalone="no"?>
<!-- Created with Inkscape (http://www.inkscape.org/) -->

<svg
   width="48"
   height="48"
   viewBox="0 0 12.7 12.7"
   version="1.1"
   id="svg5"
   xmlns="http://www.w3.org/2000/svg"
   xmlns:svg="http://www.w3.org/2000/svg">
  <defs
     id="defs2" />
  <g
     id="layer3">
    <path
       style="display:inline;color:#000000;fill:#000000;-inkscape-stroke:none"
       d="M 1.9746094,0.41210938 C 1.9746094,0.41210938 1.9772899,1.9553962 2.0039063,3.6699219 C 2.0305226,5.3844476 2.0786017,7.2563105 2.1816406,7.9648437 C 2.1960752,8.064101 2.2365607,8.1578149 2.2753906,8.2480469 C 2.3142205,8.3382788 2.3520794,8.4252106 2.3671875,8.4785156 C 2.4737253,8.8544061 2.5059723,9.6332114 2.5117188,10.056641 C 2.5129046,10.144022 2.528096,10.249478 2.5625,10.351563 C 2.596904,10.453647 2.6477721,10.562534 2.7675781,10.617188 C 2.98989,10.718605 3.3277874,10.779992 3.7246094,10.830078 C 4.1214314,10.880165 4.5721879,10.913477 5,10.935547 C 5.8556243,10.979687 6.6152344,10.980469 6.6152344,10.980469 C 6.6152344,10.980469 7.3728914,10.979687 8.2285156,10.935547 C 8.6563278,10.913477 9.1090373,10.880165 9.5058594,10.830078 C 9.9026814,10.779992 10.238626,10.718605 10.460938,10.617188 C 10.580743,10.562533 10.633565,10.453646 10.667969,10.351563 C 10.702373,10.249479 10.715611,10.144022 10.716797,10.056641 C 10.722543,9.6332115 10.754791,8.8544063 10.861328,8.4785156 C 10.876436,8.4252108 10.914295,8.3382788 10.953125,8.2480469 C 10.991955,8.157815 11.03244,8.0641008 11.046875,7.9648437 C 11.149914,7.2563106 11.197993,5.3844476 11.224609,3.6699219 C 11.251226,1.9553962 11.253906,0.41210938 11.253906,0.41210938 Z"
       id="path531"
       transform="matrix(0.91392796,0,0,0.94969026,0.57346474,0.14068872)" />
  </g>
</svg>
